<?xml version="1.0" encoding="UTF-8" standalone="no"?>
<svg width="102px" height="110px" viewBox="0 0 102 110" version="1.1" xmlns="http://www.w3.org/2000/svg" xmlns:xlink="http://www.w3.org/1999/xlink">
    <!-- Generator: Sketch 3.7.2 (28276) - http://www.bohemiancoding.com/sketch -->
    <title>Group 5</title>
    <desc>Created with Sketch.</desc>
    <defs></defs>
    <g id="Page-1" stroke="none" stroke-width="1" fill="none" fill-rule="evenodd">
        <g id="Desktop" transform="translate(-256.000000, -92.000000)">
            <g id="Group-5" transform="translate(255.000000, 92.000000)">
                <rect id="Rectangle-1" fill="#000000" x="58.9381601" y="105.245409" width="43.2130802" height="1.77662748"></rect>
                <g id="Group-19" transform="translate(4.000000, 66.000000)">
                    <polygon id="Triangle-1" fill="#EFDCF0" points="27.4749995 22.4921519 26.0681669 30.8364983 10.5911858 34.1355722"></polygon>
                    <polygon id="Triangle-1" fill="#D8F1EB" points="27.4749995 22.4921519 12.7458157 28.3138621 10.5911858 34.1355722"></polygon>
                    <polygon id="Triangle-1" fill="#EFDCF0" points="16.6673101 16.6610509 12.7458157 28.3138621 19.3622748 19.4008702"></polygon>
                    <polygon id="Triangle-1" fill="#EFDCF0" points="23.825471 23.9399921 12.7458157 28.3138621 19.3622748 19.4008702"></polygon>
                    <polygon id="Triangle-1" fill="#A0C6C1" points="23.8257821 23.9395733 25.2173337 18.2688004 35.8015476 19.1635171"></polygon>
                    <polygon id="Triangle-1" fill="#EFDCF0" points="37.0354287 11.0868685 25.1833156 18.2706767 35.8015476 19.1635171"></polygon>
                    <polygon id="Triangle-1" fill="#F4F4F4" points="37.0354287 11.0868685 25.2227995 18.2540774 25.8996662 15.524551"></polygon>
                    <polygon id="Triangle-1" fill="#A0C6C1" points="37.0354287 11.0868685 30.1875753 5.81697272 25.8996662 15.524551"></polygon>
                    <polygon id="Triangle-1" fill="#D8F1EB" points="37.0354287 11.0868685 30.1875753 5.81697272 35.6990272 4.17894267"></polygon>
                    <polygon id="Triangle-1" fill="#F4F4F4" points="37.8116769 12.9693498 39.5089388 4.5301055 37.0328106 11.0856465"></polygon>
                    <polygon id="Triangle-1" fill="#A0C6C1" points="41.9864854 4.71605951 39.5103227 4.51584173 38.2049451 11.0070496"></polygon>
                    <polygon id="Triangle-1" fill="#EFDCF0" points="35.6992906 4.18249928 39.5078716 4.51608307 37.0365663 11.0972562"></polygon>
                    <polygon id="Triangle-1" fill="#EBECEE" points="35.6951922 4.18034 41.9674015 4.72889812 44.0142708 1.61575816"></polygon>
                    <polygon id="Triangle-1" fill="#D8F1EB" points="45.8408403 1.61575816 41.9674015 4.72889812 44.0142708 1.61575816"></polygon>
                    <polygon id="Triangle-1" fill="#A0C6C1" points="48.9490924 1.61575816 48.9490926 0.173354879 44.0142708 1.61575816"></polygon>
                    <polygon id="Triangle-1" fill="#EFDCF0" points="21.470035 8.74857835 30.1875753 5.81697272 25.8996662 15.524551"></polygon>
                    <polygon id="Triangle-1" fill="#F4F4F4" points="21.4696529 8.74983586 32.9287226 5.01314629 27.8951195 2.83207086"></polygon>
                    <polygon id="Triangle-1" fill="#A0C6C1" points="32.9287226 0.355839599 32.9287226 5.01314629 27.8951195 2.83207086"></polygon>
                    <polygon id="Triangle-1" fill="#EFDCF0" points="32.9287226 0.355839599 32.9287226 5.01314629 48.9492614 0.174747039"></polygon>
                    <polygon id="Triangle-1" fill="#D8F1EB" points="21.4693415 8.74649177 23.8238311 23.9350878 25.8996743 15.5202962"></polygon>
                    <polygon id="Triangle-1" fill="#EBECEE" points="21.4693415 8.74649177 23.8238311 23.9350878 16.6627636 16.6605934"></polygon>
                    <polygon id="Triangle-1" fill="#EBECEE" points="37.0354287 11.0868685 37.8177599 12.9855894 35.8015476 19.1635171"></polygon>
                    <polygon id="Triangle-1" fill="#F4F4F4" points="27.4760146 22.484837 26.0733629 30.8024322 35.7924996 19.1671846"></polygon>
                    <polygon id="Triangle-1" fill="#D8F1EB" points="31.8982509 29.5216672 26.0733629 30.8024322 35.7924996 19.1671846"></polygon>
                    <polygon id="Triangle-1" fill="#F4F4F4" points="31.9240438 29.5224889 15.2711617 41.7560838 10.6014744 34.1331278"></polygon>
                    <polygon id="Triangle-1" fill="#A0C6C1" points="31.9105295 29.5319972 27.4936598 36.3135595 15.2673197 41.7535082"></polygon>
                    <polygon id="Triangle-1" fill="#EFDCF0" points="27.4850676 36.3111842 21.9825703 40.671103 15.2726569 41.7485162"></polygon>
                    <polygon id="Triangle-1" fill="#F4F4F4" transform="translate(17.005893, 42.249004) scale(1, -1) rotate(46.000000) translate(-17.005893, -42.249004) " points="21.6519139 39.8934232 16.1733319 43.8022249 12.3598729 44.6045846"></polygon>
                    <polygon id="Triangle-1" fill="#D8F1EB" transform="translate(11.609543, 39.259976) scale(1, -1) rotate(46.000000) translate(-11.609543, -39.259976) " points="14.737638 43.5247145 12.2949065 34.9952383 8.4814475 35.7975981"></polygon>
                    <polygon id="Triangle-1" fill="#A0C6C1" transform="translate(9.692641, 36.354930) scale(1, -1) rotate(46.000000) translate(-9.692641, -36.354930) " points="11.9887062 37.2781012 7.3965754 35.7749419 10.5275955 35.4317587"></polygon>
                    <polygon id="Triangle-1" fill="#EFDCF0" transform="translate(8.741825, 39.103016) scale(1, -1) rotate(46.000000) translate(-8.741825, -39.103016) " points="11.0953539 37.9847626 5.195497 40.2212688 12.2881534 39.4295691"></polygon>
                    <polygon id="Triangle-1" fill="#A0C6C1" transform="translate(9.994748, 41.066580) scale(1, -1) rotate(46.000000) translate(-9.994748, -41.066580) " points="12.9433205 42.1810577 7.04617637 44.4192154 9.31800117 37.7139438"></polygon>
                    <polygon id="Triangle-1" fill="#F4F4F4" transform="translate(7.560709, 43.496065) scale(1, -1) rotate(46.000000) translate(-7.560709, -43.496065) " points="4.73351823 45.7930753 8.11607445 46.8487008 10.3878992 40.1434292"></polygon>
                    <polygon id="Triangle-1" fill="#D8F1EB" transform="translate(3.530040, 41.865386) scale(1, -1) rotate(46.000000) translate(-3.530040, -41.865386) " points="2.28582075 40.2349334 5.66837697 41.2905589 1.39170399 43.4958391"></polygon>
                    <polygon id="Triangle-1" fill="#EFDCF0" transform="translate(2.034561, 43.358067) scale(1, -1) rotate(46.000000) translate(-2.034561, -43.358067) " points="2.9431684 41.7276144 1.12595424 44.1984631 2.04905164 44.98852"></polygon>
                    <polygon id="Triangle-1" fill="#EFDCF0" points="27.4749995 22.4921519 26.0681669 30.8364983 10.5911858 34.1355722"></polygon>
                    <polygon id="Triangle-1" fill="#D8F1EB" points="27.4749995 22.4921519 12.7458157 28.3138621 10.5911858 34.1355722"></polygon>
                    <polygon id="Triangle-1" fill="#EFDCF0" points="16.6673101 16.6610509 12.7458157 28.3138621 19.3622748 19.4008702"></polygon>
                    <polygon id="Triangle-1" fill="#EFDCF0" points="23.825471 23.9399921 12.7458157 28.3138621 19.3622748 19.4008702"></polygon>
                    <polygon id="Triangle-1" fill="#A0C6C1" points="23.8257821 23.9395733 25.2173337 18.2688004 35.8015476 19.1635171"></polygon>
                    <polygon id="Triangle-1" fill="#EFDCF0" points="37.0354287 11.0868685 25.1833156 18.2706767 35.8015476 19.1635171"></polygon>
                    <polygon id="Triangle-1" fill="#F4F4F4" points="37.0354287 11.0868685 25.2227995 18.2540774 25.8996662 15.524551"></polygon>
                    <polygon id="Triangle-1" fill="#A0C6C1" points="37.0354287 11.0868685 30.1875753 5.81697272 25.8996662 15.524551"></polygon>
                    <polygon id="Triangle-1" fill="#D8F1EB" points="37.0354287 11.0868685 30.1875753 5.81697272 35.6990272 4.17894267"></polygon>
                    <polygon id="Triangle-1" fill="#F4F4F4" points="37.8116769 12.9693498 39.5089388 4.5301055 37.0328106 11.0856465"></polygon>
                    <polygon id="Triangle-1" fill="#A0C6C1" points="41.9864854 4.71605951 39.5103227 4.51584173 38.2049451 11.0070496"></polygon>
                    <polygon id="Triangle-1" fill="#EFDCF0" points="35.6992906 4.18249928 39.5078716 4.51608307 37.0365663 11.0972562"></polygon>
                    <polygon id="Triangle-1" fill="#EBECEE" points="35.6951922 4.18034 41.9674015 4.72889812 44.0142708 1.61575816"></polygon>
                    <polygon id="Triangle-1" fill="#D8F1EB" points="45.8408403 1.61575816 41.9674015 4.72889812 44.0142708 1.61575816"></polygon>
                    <polygon id="Triangle-1" fill="#A0C6C1" points="48.9490924 1.61575816 48.9490926 0.173354879 44.0142708 1.61575816"></polygon>
                    <polygon id="Triangle-1" fill="#EFDCF0" points="21.470035 8.74857835 30.1875753 5.81697272 25.8996662 15.524551"></polygon>
                    <polygon id="Triangle-1" fill="#F4F4F4" points="21.4696529 8.74983586 32.9287226 5.01314629 27.8951195 2.83207086"></polygon>
                    <polygon id="Triangle-1" fill="#A0C6C1" points="32.9287226 0.355839599 32.9287226 5.01314629 27.8951195 2.83207086"></polygon>
                    <polygon id="Triangle-1" fill="#EFDCF0" points="32.9287226 0.355839599 32.9287226 5.01314629 48.9492614 0.174747039"></polygon>
                    <polygon id="Triangle-1" fill="#D8F1EB" points="21.4693415 8.74649177 23.8238311 23.9350878 25.8996743 15.5202962"></polygon>
                    <polygon id="Triangle-1" fill="#EBECEE" points="21.4693415 8.74649177 23.8238311 23.9350878 16.6627636 16.6605934"></polygon>
                    <polygon id="Triangle-1" fill="#EBECEE" points="37.0354287 11.0868685 37.8177599 12.9855894 35.8015476 19.1635171"></polygon>
                    <polygon id="Triangle-1" fill="#F4F4F4" points="27.4760146 22.484837 26.0733629 30.8024322 35.7924996 19.1671846"></polygon>
                    <polygon id="Triangle-1" fill="#D8F1EB" points="31.8982509 29.5216672 26.0733629 30.8024322 35.7924996 19.1671846"></polygon>
                    <polygon id="Triangle-1" fill="#F4F4F4" points="31.9240438 29.5224889 15.2711617 41.7560838 10.6014744 34.1331278"></polygon>
                    <polygon id="Triangle-1" fill="#A0C6C1" points="31.9105295 29.5319972 27.4936598 36.3135595 15.2673197 41.7535082"></polygon>
                    <polygon id="Triangle-1" fill="#EFDCF0" points="27.4850676 36.3111842 21.9825703 40.671103 15.2726569 41.7485162"></polygon>
                    <polygon id="Triangle-1" fill="#F4F4F4" transform="translate(17.005893, 42.249004) scale(1, -1) rotate(46.000000) translate(-17.005893, -42.249004) " points="21.6519139 39.8934232 16.1733319 43.8022249 12.3598729 44.6045846"></polygon>
                    <polygon id="Triangle-1" fill="#D8F1EB" transform="translate(11.609543, 39.259976) scale(1, -1) rotate(46.000000) translate(-11.609543, -39.259976) " points="14.737638 43.5247145 12.2949065 34.9952383 8.4814475 35.7975981"></polygon>
                    <polygon id="Triangle-1" fill="#A0C6C1" transform="translate(9.692641, 36.354930) scale(1, -1) rotate(46.000000) translate(-9.692641, -36.354930) " points="11.9887062 37.2781012 7.3965754 35.7749419 10.5275955 35.4317587"></polygon>
                    <polygon id="Triangle-1" fill="#EFDCF0" transform="translate(8.741825, 39.103016) scale(1, -1) rotate(46.000000) translate(-8.741825, -39.103016) " points="11.0953539 37.9847626 5.195497 40.2212688 12.2881534 39.4295691"></polygon>
                    <polygon id="Triangle-1" fill="#A0C6C1" transform="translate(9.994748, 41.066580) scale(1, -1) rotate(46.000000) translate(-9.994748, -41.066580) " points="12.9433205 42.1810577 7.04617637 44.4192154 9.31800117 37.7139438"></polygon>
                    <polygon id="Triangle-1" fill="#F4F4F4" transform="translate(7.560709, 43.496065) scale(1, -1) rotate(46.000000) translate(-7.560709, -43.496065) " points="4.73351823 45.7930753 8.11607445 46.8487008 10.3878992 40.1434292"></polygon>
                    <polygon id="Triangle-1" fill="#D8F1EB" transform="translate(3.530040, 41.865386) scale(1, -1) rotate(46.000000) translate(-3.530040, -41.865386) " points="2.28582075 40.2349334 5.66837697 41.2905589 1.39170399 43.4958391"></polygon>
                    <polygon id="Triangle-1" fill="#EFDCF0" transform="translate(2.034561, 43.358067) scale(1, -1) rotate(46.000000) translate(-2.034561, -43.358067) " points="2.9431684 41.7276144 1.12595424 44.1984631 2.04905164 44.98852"></polygon>
                </g>
                <polygon id="Path-1" fill="#242324" points="92.4590051 106.061177 50.9037889 0.183424159 49.7280269 0.183424161 35.138903 37.5027589 36.9821707 37.5032067 41.1032909 27.2181224 71.4994138 106.061177"></polygon>
                <rect id="Rectangle-1" fill="#29292A" x="58.9381601" y="105.245409" width="43.2130802" height="1.77662748"></rect>
                <path d="M50.9999995,63 L23.2392745,72.2228142" id="Line" stroke="#000000" stroke-width="0.3" stroke-linecap="square"></path>
                <path d="M34.8113903,68.2993376 L34.8113903,63.7219482" id="Line" stroke="#000000" stroke-width="0.5" stroke-linecap="square"></path>
                <path d="M23.2392745,72.2228142 L29.7895287,66.1196283" id="Line" stroke="#000000" stroke-width="0.5" stroke-linecap="square"></path>
                <path d="M34.5930485,68.2993376 L29.7895287,66.1196283" id="Line" stroke="#000000" stroke-width="0.5" stroke-linecap="square"></path>
                <path d="M34.8113903,63.5039773 L29.7895287,66.1196283" id="Line" stroke="#000000" stroke-width="0.5" stroke-linecap="square"></path>
                <path d="M34.8113903,63.5664297 L51.0000004,63" id="Line" stroke="#000000" stroke-width="0.5" stroke-linecap="square"></path>
                <path d="M50.9007342,64.4848464 L51,63" id="Line" stroke="#000000" stroke-width="0.5" stroke-linecap="square"></path>
                <path d="M50.8595132,64.4848464 L46.0559934,65.0040582" id="Line" stroke="#000000" stroke-width="0.5" stroke-linecap="square"></path>
                <path d="M43.6542335,67.9723812 L46.0000001,65" id="Line" stroke="#000000" stroke-width="0.5" stroke-linecap="square"></path>
                <path d="M43.6542335,67.9723812 L48.0000001,65" id="Line" stroke="#000000" stroke-width="0.5" stroke-linecap="square"></path>
                <path d="M43.6542335,68.0556512 L37.5406629,67.5364393" id="Line" stroke="#000000" stroke-width="0.5" stroke-linecap="square"></path>
                <path d="M39.5057392,76.6912181 L37.5406629,67.5364393" id="Line" stroke="#000000" stroke-width="0.5" stroke-linecap="square"></path>
                <path d="M39.5057392,76.6912181 L41.2524736,67.9723812" id="Line" stroke="#000000" stroke-width="0.5" stroke-linecap="square"></path>
                <path d="M40,75.0000001 L43.6542335,68.1903521" id="Line" stroke="#000000" stroke-width="0.5" stroke-linecap="square"></path>
                <path d="M39.0000001,75 L32.0821177,69.2802067" id="Line" stroke="#000000" stroke-width="0.5" stroke-linecap="square"></path>
                <path d="M27.7152815,79.3068692 L32.0821177,69.2802067" id="Line" stroke="#000000" stroke-width="0.5" stroke-linecap="square"></path>
                <path d="M27.7152815,79.3068692 L23.1301036,72.1138287" id="Line" stroke="#000000" stroke-width="0.5" stroke-linecap="square"></path>
                <path d="M25.5318635,88.0257061 L23.1301036,72.1138287" id="Line" stroke="#000000" stroke-width="0.5" stroke-linecap="square"></path>
                <path d="M25.5318635,88.0257061 L27.7152815,79.3068692" id="Line" stroke="#000000" stroke-width="0.5" stroke-linecap="square"></path>
                <path d="M25.5318635,88.0257061 L18.3265838,80.3967238" id="Line" stroke="#000000" stroke-width="0.5" stroke-linecap="square"></path>
                <path d="M23.1301036,72.1138287 L18.3265838,80.3967238" id="Line" stroke="#000000" stroke-width="0.5" stroke-linecap="square"></path>
                <path d="M14.3964313,92.8210664 L18.3265838,80.3967238" id="Line" stroke="#000000" stroke-width="0.5" stroke-linecap="square"></path>
                <path d="M14.3964313,92.8210664 L20.9466855,83.2303458" id="Line" stroke="#000000" stroke-width="0.5" stroke-linecap="square"></path>
                <path d="M14.3964313,92.8210664 L37.5406629,83.0123749" id="Line" stroke="#000000" stroke-width="0.5" stroke-linecap="square"></path>
                <path d="M27.0602561,82.1404912 L37.5406629,83.0123749" id="Line" stroke="#000000" stroke-width="0.5" stroke-linecap="square"></path>
                <path d="M27.7152815,95.2187465 L37.5406629,83.0123749" id="Line" stroke="#000000" stroke-width="0.5" stroke-linecap="square"></path>
                <path d="M27.7152815,95.2187465 L29.0000001,87" id="Line" stroke="#000000" stroke-width="0.5" stroke-linecap="square"></path>
                <path d="M12.2130132,98.7062813 L29.2436742,86.4999096" id="Line" stroke="#000000" stroke-width="0.5" stroke-linecap="square"></path>
                <path d="M12.2130132,98.7062813 L14.3964313,92.8210664" id="Line" stroke="#000000" stroke-width="0.5" stroke-linecap="square"></path>
                <path d="M12.2130132,98.7062813 L27.7152815,95.2187465" id="Line" stroke="#000000" stroke-width="0.5" stroke-linecap="square"></path>
                <path d="M33.8288522,93.4749792 L27.7152815,95.2187465" id="Line" stroke="#000000" stroke-width="0.5" stroke-linecap="square"></path>
                <path d="M33.8288522,93.4749792 L37.5406629,83.0123749" id="Line" stroke="#000000" stroke-width="0.5" stroke-linecap="square"></path>
                <path d="M33.8288522,93.4749792 L16.7981912,106.553235 L33.8288522,93.4749792 Z" id="Line" stroke="#000000" stroke-width="0.5" stroke-linecap="square"></path>
                <path d="M29.0253324,101.103961 L16.7981912,106.553235" id="Line" stroke="#000000" stroke-width="0.5" stroke-linecap="square"></path>
                <path d="M29.0253324,101.103961 L33.8288522,93.4749792" id="Line" stroke="#000000" stroke-width="0.5" stroke-linecap="square"></path>
                <path d="M29.0253324,101.103961 L23.5667872,105.46338" id="Line" stroke="#000000" stroke-width="0.5" stroke-linecap="square"></path>
                <path d="M16.7981912,106.553235 L23.5667872,105.46338" id="Line" stroke="#000000" stroke-width="0.5" stroke-linecap="square"></path>
                <path d="M16.7981912,106.553235 L12.2130132,98.7062813" id="Line" stroke="#000000" stroke-width="0.5" stroke-linecap="square"></path>
                <path d="M13.523064,108.732944 L12.2130132,98.7062813" id="Line" stroke="#000000" stroke-width="0.5" stroke-linecap="square"></path>
                <path d="M13.523064,108.732944 L16.7981912,106.553235" id="Line" stroke="#000000" stroke-width="0.5" stroke-linecap="square"></path>
                <path d="M13.523064,108.732944 L23.5667872,105.46338" id="Line" stroke="#000000" stroke-width="0.5" stroke-linecap="square"></path>
                <path d="M13.523064,108.732944 L6.9728098,105.681351" id="Line" stroke="#000000" stroke-width="0.5" stroke-linecap="square"></path>
                <path d="M5.44441715,108.732944 L6.9728098,105.681351" id="Line" stroke="#000000" stroke-width="0.5" stroke-linecap="square"></path>
                <path d="M2,109.051593 L2,107" id="Line" stroke="#000000" stroke-width="0.5" stroke-linecap="square"></path>
                <path d="M2.00000003,109 L13.523064,108.433424" id="Line" stroke="#000000" stroke-width="0.5" stroke-linecap="square"></path>
                <path d="M6.9728098,105.681351 L2.00000001,107" id="Line" stroke="#000000" stroke-width="0.5" stroke-linecap="square"></path>
                <path d="M13,105 L6.9728098,105.681351" id="Line" stroke="#000000" stroke-width="0.5" stroke-linecap="square"></path>
                <path d="M12.6496968,100.885991 L6.9728098,105.681351" id="Line" stroke="#000000" stroke-width="0.5" stroke-linecap="square"></path>
                <path d="M12.2130132,98.7062813 L10.0295951,103.0657" id="Line" stroke="#000000" stroke-width="0.5" stroke-linecap="square"></path>
                <path d="M27.0602561,82.1404912 L38.8507137,74.5115089" id="Line" stroke="#000000" stroke-width="0.5" stroke-linecap="square"></path>
                <path d="M27.7152815,79.3068692 L38.8507137,74.5115089" id="Line" stroke="#000000" stroke-width="0.5" stroke-linecap="square"></path>
                <path d="M37.5406629,83.0123749 L38.8507137,74.5115089" id="Line" stroke="#000000" stroke-width="0.5" stroke-linecap="square"></path>
                <path d="M37.5406629,83.0123749 L39.5057392,76.6912181" id="Line" stroke="#000000" stroke-width="0.5" stroke-linecap="square"></path>
            </g>
        </g>
    </g>
</svg>